<svg xmlns="http://www.w3.org/2000/svg" width="34" height="34" viewBox="0 0 34 34">
    <g fill="none" fill-rule="evenodd">
        <path fill="#1769FF" d="M0 17C0 7.611 7.611 0 17 0s17 7.611 17 17-7.611 17-17 17S0 26.389 0 17z"/>
        <path fill="#FFF" d="M19.502 13.836h4.767V12.5h-4.767v1.336zm1.13 2.913c-.305.302-.496.712-.574 1.228h3.707c-.04-.551-.232-.968-.573-1.254-.345-.285-.77-.427-1.277-.427-.55 0-.98.151-1.284.453zm3.216-1.793c.575.248 1.048.64 1.42 1.174.34.472.558 1.02.658 1.641.058.363.081.89.072 1.575h-5.993c.036.796.32 1.354.861 1.673.328.2.723.3 1.186.3.488 0 .887-.122 1.193-.364.168-.132.317-.313.444-.546h2.196c-.059.47-.325.948-.797 1.434-.737.771-1.769 1.157-3.095 1.157-1.095 0-2.061-.325-2.896-.976-.84-.65-1.257-1.71-1.257-3.176 0-1.375.378-2.43 1.133-3.164.756-.732 1.735-1.1 2.94-1.1.717 0 1.362.124 1.935.372zm-13.63 3.05v2.861h2.7c.483 0 .86-.063 1.127-.188.488-.235.731-.68.731-1.34 0-.56-.234-.942-.708-1.151-.264-.117-.636-.178-1.112-.182h-2.739zm0-4.143v2.368h2.704c.482 0 .874-.09 1.177-.267.3-.178.452-.492.452-.941 0-.501-.199-.831-.597-.992-.345-.112-.783-.168-1.315-.168h-2.422zm6.04-.72c.34.457.51 1.002.51 1.638 0 .654-.17 1.182-.514 1.58-.193.223-.475.427-.849.61.567.2.995.516 1.286.948.288.43.433.956.433 1.572 0 .636-.165 1.207-.497 1.711-.21.334-.472.616-.787.844-.354.263-.772.442-1.256.54-.484.097-1.007.143-1.572.143H8V12h5.375c1.357.02 2.317.4 2.883 1.143z"/>
    </g>
</svg>
