<svg xmlns="http://www.w3.org/2000/svg" width="35" height="35" viewBox="0 0 35 35">
    <g fill="none" fill-rule="evenodd">
        <path fill="#FFF" d="M0 17.5C0 7.835 7.835 0 17.5 0S35 7.835 35 17.5 27.165 35 17.5 35 0 27.165 0 17.5z"/>
        <path fill="#0B0B0A" d="M26.993 15.157c-.001-.012-.004-.022-.006-.034l-.013-.064-.013-.038c-.006-.02-.012-.038-.02-.056-.005-.013-.01-.026-.017-.038-.008-.018-.016-.035-.026-.051l-.022-.036c-.01-.016-.021-.032-.033-.047l-.026-.034-.04-.042-.03-.03-.043-.037-.035-.026-.013-.01-8.227-5.484c-.26-.173-.598-.173-.858 0l-8.226 5.484-.013.01c-.013.008-.024.017-.035.026l-.044.037-.03.03-.04.042-.026.034c-.011.015-.022.03-.032.047l-.023.036c-.01.016-.018.033-.026.051l-.017.038c-.008.018-.014.037-.02.056-.004.012-.009.025-.012.038-.006.02-.01.042-.013.064-.003.012-.006.022-.007.034-.004.033-.007.066-.007.1v5.485c0 .034.003.068.007.101.001.011.004.022.007.034.003.022.007.043.013.064.003.013.008.026.012.038.006.019.012.038.02.057l.017.037.026.052.023.035c.01.016.02.032.032.047.008.012.017.023.027.034l.038.041c.01.01.02.021.031.03.014.014.029.026.044.038.011.009.022.018.035.026l.013.01 8.226 5.484c.13.087.28.13.429.13.15 0 .3-.043.43-.13l8.226-5.484.013-.01.035-.026.043-.037.03-.03.04-.042.026-.034c.012-.015.023-.03.033-.047l.022-.035.026-.052.018-.037.02-.057.012-.038c.005-.021.01-.042.013-.064l.006-.034c.005-.033.007-.067.007-.1v-5.485c0-.034-.002-.068-.007-.1zm-8.22-3.938l6.06 4.04-2.706 1.81-3.354-2.243V11.22zm-1.546 0v3.607l-3.354 2.244-2.707-1.811 6.06-4.04zm-6.68 5.487L12.482 18l-1.935 1.294v-2.588zm6.68 8.075l-6.06-4.04 2.707-1.81 3.353 2.243v3.607zM18 19.83L15.265 18 18 16.17 20.736 18 18 19.83zm.773 4.95v-3.606l3.354-2.243 2.707 1.81-6.06 4.04zm6.68-5.486L23.518 18l1.935-1.294v2.588z"/>
    </g>
</svg>
