<svg xmlns="http://www.w3.org/2000/svg" width="87" height="25" viewBox="0 0 87 25">
    <path fill="#1B1C1A" d="M41.82 7.271c.06 0 .121 0 .182.002L42 11.67c-2.13.042-3.195 1.473-3.195 4.293 0 2.862 1.097 4.293 3.292 4.293L42 20.254v4.743l-.18.003c-1.738 0-3.28-.313-4.63-.94l-.308-.15c-1.42-.728-2.517-1.76-3.291-3.1-.774-1.339-1.16-2.908-1.16-4.709 0-1.8.386-3.364 1.16-4.692.774-1.327 1.865-2.349 3.274-3.064 1.409-.716 3.06-1.074 4.955-1.074zm1.18.05c1.409.12 2.666.461 3.774 1.024 1.41.715 2.5 1.737 3.274 3.064.774 1.328 1.161 2.892 1.161 4.692 0 1.8-.387 3.37-1.16 4.71-.774 1.338-1.866 2.371-3.275 3.098-1.108.572-2.365.919-3.773 1.041v-4.788c1.591-.362 2.387-1.761 2.387-4.2 0-2.437-.796-3.837-2.387-4.199zm18.292-.188c1.039 0 2.05.127 3.031.38.982.255 1.854.613 2.616 1.074.716.416 1.074 1.085 1.074 2.009 0 .646-.173 1.188-.52 1.627-.346.439-.773.658-1.282.658-.6 0-1.316-.196-2.148-.589-.554-.254-1.045-.444-1.472-.571-.428-.127-.93-.19-1.507-.19-.578 0-1.028.086-1.352.26-.323.172-.485.42-.485.744 0 .369.226.658.676.865.45.208 1.345.439 2.685.693 2.24.392 3.823.987 4.747 1.783.924.796 1.386 1.945 1.386 3.445 0 1.685-.699 3.03-2.096 4.034-1.398 1.004-3.275 1.506-5.63 1.506-1.548 0-2.853-.115-3.916-.346-1.062-.23-1.998-.6-2.806-1.108-.324-.161-.578-.438-.763-.83-.184-.393-.277-.832-.277-1.317 0-.623.168-1.137.503-1.54.335-.404.756-.606 1.264-.606.347 0 .67.04.97.12.3.082.67.214 1.11.399.738.254 1.39.45 1.957.589.566.138 1.287.207 2.165.207.624 0 1.115-.086 1.473-.26.358-.172.537-.42.537-.744 0-.254-.087-.45-.26-.588-.173-.139-.502-.272-.988-.399-.485-.127-1.305-.305-2.46-.536-2.055-.393-3.54-.987-4.452-1.784-.912-.796-1.368-1.921-1.368-3.376 0-1.061.329-2.02.987-2.874.658-.854 1.565-1.523 2.72-2.008 1.155-.485 2.448-.727 3.88-.727zm17.74 0c1.593 0 2.99.346 4.191 1.039 1.202.692 2.131 1.673 2.79 2.943.658 1.27.987 2.758.987 4.467 0 .53-.121.94-.364 1.229-.242.288-.595.433-1.057.433h-9.147l.045.27c.178.968.521 1.675 1.03 2.119.554.485 1.374.727 2.46.727.577 0 1.108-.063 1.593-.19.485-.127 1.028-.306 1.629-.537.346-.139.687-.26 1.022-.364.335-.103.64-.155.918-.155.531 0 .964.207 1.3.623.334.415.502.958.502 1.627 0 .924-.45 1.628-1.352 2.112-.785.393-1.715.722-2.789.987-1.074.266-2.061.398-2.962.398-1.894 0-3.546-.357-4.955-1.073-1.409-.716-2.494-1.743-3.257-3.082-.762-1.339-1.143-2.908-1.143-4.709 0-1.708.364-3.237 1.092-4.588.727-1.35 1.743-2.4 3.049-3.15 1.305-.75 2.777-1.126 4.417-1.126zM18.154 0c.763 0 1.432.283 2.01.848.577.566.866 1.23.866 1.991 0 .762-.335 1.466-1.005 2.113l-7.102 6.96 7.691 7.894.157.16c.496.54.744 1.156.744 1.848 0 .762-.289 1.432-.866 2.009-.578.577-1.259.865-2.044.865-.855 0-1.64-.369-2.356-1.108L6.375 13.47v8.171l-.006.238c-.044.858-.33 1.546-.86 2.065-.577.565-1.363.848-2.356.848-.97 0-1.738-.283-2.304-.848C.283 23.378 0 22.61 0 21.64V3.116l.006-.232C.049 2.045.33 1.367.849.848 1.415.283 2.183 0 3.153 0c.993 0 1.779.283 2.356.848.577.566.866 1.322.866 2.268v7.618l9.736-9.8.166-.161C16.837.258 17.462 0 18.155 0zm8.697 0c.878 0 1.611.242 2.2.727.589.485.883 1.2.883 2.147v19.079l-.005.214c-.042.84-.334 1.479-.878 1.915-.589.474-1.322.71-2.2.71-.878 0-1.611-.236-2.2-.71-.59-.473-.884-1.183-.884-2.13V2.875l.005-.214c.042-.841.335-1.485.879-1.933C25.24.242 25.974 0 26.852 0zm52.352 11.288c-.808 0-1.455.26-1.94.78-.485.519-.774 1.275-.866 2.267h5.44c-.14-2.031-1.017-3.047-2.634-3.047z"/>
</svg>
