<svg xmlns="http://www.w3.org/2000/svg" width="10" height="16" viewBox="0 0 10 16">
    <g fill="none" fill-rule="evenodd">
        <g fill="#881098" fill-rule="nonzero">
            <g>
                <path d="M9.375 12.667c-.345 0-.625.298-.625.666V14c0 .368-.28.667-.625.667h-6.25c-.345 0-.625-.299-.625-.667V2c0-.368.28-.667.625-.667h.313c.347 0 .629.303.624.675-.004.365.279.659.621.659h2.823c.653 0 .935-.294.931-.659-.004-.372.278-.675.625-.675h.313c.345 0 .625.299.625.667v.667c0 .368.28.666.625.666S10 3.035 10 2.667V2c0-1.105-.84-2-1.875-2h-6.25C.839 0 0 .895 0 2v12c0 1.105.84 2 1.875 2h6.25C9.161 16 10 15.105 10 14v-.667c0-.368-.28-.666-.625-.666z" transform="translate(-286 -73) translate(286 73)"/>
            </g>
        </g>
    </g>
</svg>
