<svg xmlns="http://www.w3.org/2000/svg" width="43" height="42" viewBox="0 0 43 42">
    <defs>
        <linearGradient id="dwigwl0s8a" x1="134.326%" x2="-30.678%" y1="138.085%" y2="-32.4%">
            <stop offset="0%" stop-color="#CC0886"/>
            <stop offset="51.552%" stop-color="#8D0B93"/>
            <stop offset="100%" stop-color="#4F4AD2"/>
        </linearGradient>
        <linearGradient id="wyo8qjyp8b" x1="134.326%" x2="-30.678%" y1="106.374%" y2="-2.736%">
            <stop offset="0%" stop-color="#CC0886"/>
            <stop offset="51.552%" stop-color="#8D0B93"/>
            <stop offset="100%" stop-color="#4F4AD2"/>
        </linearGradient>
    </defs>
    <g fill="none" fill-rule="evenodd">
        <g>
            <g transform="translate(-14 -553) translate(14 553)">
                <rect width="43" height="42" fill="#F7F7F7" rx="7"/>
                <g fill-rule="nonzero">
                    <path fill="url(#dwigwl0s8a)" d="M27.19 5H15.81c-.448 0-.81.364-.81.812v8.125c0 .45.362.813.81.813h2.427v2.437c0 .329.196.626.499.751.298.125.648.058.882-.176l3-3.012h4.573c.447 0 .809-.364.809-.813V5.812c0-.448-.362-.812-.81-.812zm-8.955 5.687c-.447 0-.81-.363-.81-.812 0-.449.363-.813.81-.813.447 0 .81.364.81.813 0 .449-.363.812-.81.812zm3.237 0c-.447 0-.81-.363-.81-.812 0-.449.363-.813.81-.813.446 0 .809.364.809.813 0 .449-.363.812-.81.812zm3.236 0c-.447 0-.81-.363-.81-.812 0-.449.363-.813.81-.813.447 0 .81.364.81.813 0 .449-.363.812-.81.812z" transform="translate(8 7)"/>
                    <path fill="url(#wyo8qjyp8b)" d="M10.833 12h2.5V6.057c0-1.405 1.122-2.548 2.5-2.548H25V.85C25 .38 24.627 0 24.167 0H10.833c-.46 0-.833.38-.833.85v10.3c0 .47.373.85.833.85z" transform="translate(8 7)"/>
                    <path fill="url(#dwigwl0s8a)" d="M16.369 28c.899 0 1.631-.734 1.631-1.636V23.68c0-.353-.225-.665-.558-.776l-3.958-1.323c-.238-.08-.501-.045-.71.095l-2.115 1.414c-2.592-1.04-4.728-3.128-5.765-5.727l1.41-2.122c.14-.21.175-.473.095-.712l-1.32-3.97c-.11-.335-.421-.56-.773-.56H1.631C.732 10 0 10.734 0 11.636 0 20.66 7.373 28 16.369 28z" transform="translate(8 7)"/>
                </g>
            </g>
        </g>
    </g>
</svg>
