<svg xmlns="http://www.w3.org/2000/svg" width="16" height="16" viewBox="0 0 16 16">
    <g fill="none" fill-rule="evenodd">
        <g fill="#881098" fill-rule="nonzero">
            <g>
                <path d="M9.375 12.667c-.345 0-.625.298-.625.666V14c0 .368-.28.667-.625.667h-6.25c-.345 0-.625-.299-.625-.667V2c0-.368.28-.667.625-.667h.313c.347 0 .629.303.624.675-.004.365.279.659.621.659h2.823c.653 0 .935-.294.931-.659-.004-.372.278-.675.625-.675h.313c.345 0 .625.299.625.667v.667c0 .368.28.666.625.666S10 3.035 10 2.667V2c0-1.105-.84-2-1.875-2h-6.25C.839 0 0 .895 0 2v12c0 1.105.84 2 1.875 2h6.25C9.161 16 10 15.105 10 14v-.667c0-.368-.28-.666-.625-.666z" transform="translate(-286 -73) translate(286 73)"/>
                <path d="M16 7.4c0-.772-.577-1.4-1.286-1.4H8.286C7.576 6 7 6.628 7 7.4v4.2c0 .772.577 1.4 1.286 1.4h6.428c.71 0 1.286-.628 1.286-1.4V7.4zm-1.286 1.4l-3.008 1.526c-.065.035-.135.049-.206.049-.07 0-.141-.014-.206-.049L8.286 8.8V7.638L11.5 9.269l3.214-1.631V8.8z" transform="translate(-286 -73) translate(286 73)"/>
            </g>
        </g>
    </g>
</svg>
