<svg xmlns="http://www.w3.org/2000/svg" width="12" height="14" viewBox="0 0 12 14">
    <g fill="none" fill-rule="evenodd">
        <g fill="#F8F5FA" fill-rule="nonzero">
            <path d="M301.545 104h-5.318c-1.228 0-2.227-.981-2.227-2.188v-7.41c0-1.206 1-2.187 2.227-2.187h5.318c1.228 0 2.228.981 2.228 2.187v7.41c0 1.207-1 2.188-2.228 2.188zm-5.318-10.691c-.614 0-1.113.49-1.113 1.093v7.41c0 .604.5 1.094 1.113 1.094h5.318c.614 0 1.114-.49 1.114-1.094v-7.41c0-.603-.5-1.093-1.114-1.093h-5.318zm9.773 7.136v-8.257c0-1.207-1-2.188-2.227-2.188h-6.181c-.308 0-.557.245-.557.547 0 .302.25.547.557.547h6.18c.615 0 1.114.49 1.114 1.094v8.257c0 .302.25.547.557.547.308 0 .557-.245.557-.547z" transform="translate(-294 -90)"/>
        </g>
    </g>
</svg>
