<svg xmlns="http://www.w3.org/2000/svg" width="43" height="42" viewBox="0 0 43 42">
    <defs>
        <linearGradient id="ikth94lc0a" x1="134.326%" x2="-30.678%" y1="138.085%" y2="-32.4%">
            <stop offset="0%" stop-color="#CC0886"/>
            <stop offset="51.552%" stop-color="#8D0B93"/>
            <stop offset="100%" stop-color="#4F4AD2"/>
        </linearGradient>
        <linearGradient id="sbpztomtsb" x1="121.851%" x2="-18.743%" y1="138.085%" y2="-32.4%">
            <stop offset="0%" stop-color="#CC0886"/>
            <stop offset="51.552%" stop-color="#8D0B93"/>
            <stop offset="100%" stop-color="#4F4AD2"/>
        </linearGradient>
    </defs>
    <g fill="none" fill-rule="evenodd">
        <g>
            <g transform="translate(-15 -856) translate(15 856)">
                <rect width="43" height="42" fill="#F7F7F7" rx="7"/>
                <g fill-rule="nonzero">
                    <path fill="url(#ikth94lc0a)" d="M3.889 10c-.204-.7-.4-1.402-.548-2.074-.968-.58-1.626-1.637-1.626-2.858 0-1.837 1.473-3.329 3.284-3.329 1.811 0 3.285 1.494 3.285 3.33 0 .252-.034.495-.086.731.314.702.568 1.491.791 2.294C9.615 7.248 10 6.208 10 5.068 10 2.268 7.762 0 5 0 2.236 0 0 2.268 0 5.068 0 7.48 1.664 9.488 3.889 10z" transform="translate(10 6)"/>
                    <path fill="url(#sbpztomtsb)" d="M.532 22.698c1.29-1.375 2.737-.836 4.675-.545 1.664.252 3.304-.209 3.195-1.095-.173-1.435-.415-2.076-.968-3.934-.44-1.478-1.276-4.14-2.037-6.687-1.019-3.406-1.314-4.988.043-5.382 1.462-.42 2.3 1.628 3.06 4.468.865 3.233 1.32 4.66 1.575 4.585.449-.127-.165-1.51 1.01-1.85 1.468-.422 1.751.71 2.163.596.411-.122.272-1.268 1.443-1.606 1.177-.335 1.767 1.094 2.253.952.48-.14.47-.656 1.195-.86.727-.214 3.462.994 5.027 6.266 1.964 6.63-.249 7.862.422 10.106L14.82 31c-.71-1.683-2.908-1.808-4.853-2.881-1.96-1.087-3.291-3.206-8.398-3.103-1.921.038-1.83-1.472-1.036-2.318z" transform="translate(10 6)"/>
                </g>
            </g>
        </g>
    </g>
</svg>
