<svg xmlns="http://www.w3.org/2000/svg" width="16" height="16" viewBox="0 0 16 16">
    <g fill="none" fill-rule="evenodd">
        <g fill="#881098" fill-rule="nonzero">
            <g>
                <path d="M12.023 0L1.909 10.113 0 16l5.887-1.91L16 3.978 12.023 0zm2.651 3.977l-1.326 1.326-2.651-2.651 1.326-1.326 2.651 2.651zM2.53 11.237l2.232 2.233-1 .325-1.557-1.556.325-1.001zm.453-.872l7.05-7.05.995.994-7.05 7.05-.995-.994zm1.658 1.657l7.05-7.05.994.994-7.05 7.05-.994-.994zM1.88 13.24l.879.88-1.301.421.422-1.3z" transform="translate(-335 -89) translate(335 89)"/>
            </g>
        </g>
    </g>
</svg>
