<svg xmlns="http://www.w3.org/2000/svg" width="35" height="35" viewBox="0 0 35 35">
    <g fill="none" fill-rule="evenodd">
        <path fill="#F26798" d="M0 17.5C0 7.835 7.835 0 17.5 0S35 7.835 35 17.5 27.165 35 17.5 35 0 27.165 0 17.5z"/>
        <path fill="#FFF" d="M17.5 8c.643 0 1.287.065 1.913.193.61.124 1.21.31 1.785.553.563.24 1.106.534 1.614.878.502.34.975.73 1.405 1.158.43.43.82.902 1.159 1.406.344.506.639 1.05.876 1.614.243.573.429 1.174.554 1.785.129.625.194 1.27.194 1.913s-.065 1.286-.194 1.912c-.125.611-.31 1.212-.554 1.786-.237.563-.532 1.106-.876 1.613-.34.503-.73.975-1.159 1.406-.43.428-.903.818-1.405 1.16-.508.342-1.051.636-1.614.875-.574.242-1.175.428-1.785.553-.626.13-1.27.195-1.913.195-.644 0-1.288-.066-1.914-.195-.61-.125-1.211-.31-1.785-.553-.563-.239-1.106-.533-1.614-.876-.502-.34-.975-.73-1.405-1.16-.43-.43-.82-.902-1.16-1.405-.342-.507-.637-1.05-.875-1.613-.243-.574-.43-1.175-.555-1.786C8.065 18.786 8 18.143 8 17.5c0-.644.065-1.288.192-1.913.126-.61.312-1.212.555-1.785.238-.564.533-1.108.876-1.614.34-.504.73-.975 1.16-1.406.429-.429.902-.818 1.404-1.158.508-.344 1.051-.639 1.614-.878.574-.243 1.175-.429 1.786-.553C16.212 8.065 16.856 8 17.5 8zm1.434 10.809l-.054.018c-4.787 1.668-6.35 5.031-6.367 5.068 1.377 1.07 3.105 1.717 4.987 1.717 1.123 0 2.193-.229 3.167-.643-.12-.709-.591-3.193-1.733-6.16zm1.52-.376c1.064 2.925 1.497 5.306 1.58 5.795 1.82-1.23 3.115-3.181 3.476-5.442-.167-.054-2.437-.773-5.056-.353zm-2.731-2.347c-4.178 1.25-8.186 1.16-8.33 1.155-.002.087-.006.172-.006.259 0 2.084.786 3.984 2.078 5.42-.003-.003 2.218-3.942 6.596-5.358.106-.035.213-.067.32-.097-.204-.461-.426-.923-.658-1.379zm6.042-3.74c-.015.022-1.317 1.902-4.52 3.21.189.387.37.781.54 1.177.06.142.118.28.175.42 2.787-.35 5.532.24 5.65.263-.019-1.923-.707-3.688-1.845-5.07zm-9.727-2.184c-2.262 1.068-3.951 3.153-4.478 5.665h.243c.87-.005 3.865-.091 7.248-.99-1.405-2.495-2.905-4.53-3.013-4.675zm3.462-.774c-.66 0-1.3.08-1.912.227.121.164 1.645 2.185 3.033 4.733 3.061-1.148 4.217-2.907 4.237-2.937-1.429-1.26-3.304-2.023-5.358-2.023z"/>
    </g>
</svg>
