<svg xmlns="http://www.w3.org/2000/svg" width="14" height="9" viewBox="0 0 14 9">
    <g fill="none" fill-rule="evenodd">
        <g fill="#F8F5FA" fill-rule="nonzero">
            <g>
                <path d="M13.203 3.998c-.118-.163-2.947-3.976-6.56-3.976C3.032.022.204 3.835.085 3.998c-.112.154-.112.363 0 .517.119.162 2.947 3.976 6.56 3.976 3.612 0 6.44-3.814 6.56-3.976.112-.154.112-.363 0-.517zm-6.56 3.617c-2.66 0-4.965-2.532-5.647-3.359C1.677 3.428 3.977.898 6.644.898c2.66 0 4.965 2.53 5.648 3.359-.682.828-2.982 3.358-5.648 3.358z" transform="translate(-334 -93) translate(334 93)"/>
                <path d="M6.644 1.628c-1.45 0-2.629 1.179-2.629 2.628 0 1.45 1.18 2.629 2.629 2.629 1.45 0 2.628-1.18 2.628-2.629S8.093 1.628 6.644 1.628zm0 4.38c-.966 0-1.752-.786-1.752-1.752s.786-1.752 1.752-1.752 1.752.786 1.752 1.752S7.61 6.01 6.644 6.01z" transform="translate(-334 -93) translate(334 93)"/>
            </g>
        </g>
    </g>
</svg>
