<svg xmlns="http://www.w3.org/2000/svg" width="33" height="33" viewBox="0 0 33 33">
    <g fill="#161514" fill-rule="evenodd">
        <path d="M16.5 0C7.39 0 0 7.574 0 16.918c0 7.474 4.728 13.816 11.284 16.053.824.157 1.127-.367 1.127-.814 0-.403-.015-1.736-.022-3.15-4.59 1.024-5.56-1.996-5.56-1.996-.75-1.955-1.831-2.475-1.831-2.475-1.497-1.05.113-1.029.113-1.029 1.656.12 2.529 1.744 2.529 1.744 1.472 2.586 3.86 1.838 4.801 1.406.149-1.093.576-1.84 1.048-2.262-3.665-.428-7.517-1.878-7.517-8.36 0-1.848.644-3.357 1.7-4.542-.172-.426-.736-2.147.16-4.477 0 0 1.385-.455 4.538 1.734 1.316-.375 2.728-.563 4.13-.569 1.402.006 2.815.194 4.134.57 3.149-2.19 4.533-1.735 4.533-1.735.898 2.33.333 4.051.161 4.477 1.058 1.185 1.699 2.694 1.699 4.541 0 6.498-3.86 7.929-7.535 8.348.592.525 1.12 1.554 1.12 3.132 0 2.264-.02 4.086-.02 4.643 0 .45.297.978 1.134.812C28.278 30.729 33 24.389 33 16.918 33 7.574 25.613 0 16.5 0"/>
        <path d="M6.277 24.449c-.036.083-.165.108-.282.05-.12-.054-.187-.167-.148-.25.036-.086.165-.11.284-.053.12.055.188.17.146.253M7.491 24.63c-.078.073-.232.039-.336-.078-.108-.117-.128-.273-.048-.348.08-.074.23-.04.338.077.107.118.128.273.046.348M7.502 25.939c-.101.071-.266.004-.368-.145-.101-.149-.101-.327.002-.399.102-.071.265-.007.368.14.1.152.1.33-.002.404"/>
        <path d="M8.454 26.767c-.18.202-.56.148-.84-.127-.285-.27-.365-.65-.185-.852.181-.202.564-.146.846.127.283.269.37.653.179.852M9.765 26.975c-.07.131-.395.19-.722.135-.327-.057-.542-.21-.475-.344.068-.132.394-.194.724-.134.327.057.541.21.473.343M11 28.076c.008.138-.265.253-.603.255-.34.005-.615-.107-.62-.243 0-.14.268-.253.608-.256.338-.004.615.107.615.244M12.218 26.8c.04.136-.196.274-.533.31-.331.036-.638-.047-.68-.18-.042-.139.199-.277.53-.313.337-.034.64.047.683.184"/>
    </g>
</svg>
