<svg xmlns="http://www.w3.org/2000/svg" xmlns:xlink="http://www.w3.org/1999/xlink" width="55" height="55" viewBox="0 0 55 55">
    <defs>
        <linearGradient id="lvlieznsc" x1="134.326%" x2="-30.678%" y1="138.085%" y2="-32.4%">
            <stop offset="0%" stop-color="#CC0886"/>
            <stop offset="51.552%" stop-color="#8D0B93"/>
            <stop offset="100%" stop-color="#4F4AD2"/>
        </linearGradient>
        <filter id="bd3vm3uzra" width="142.2%" height="142.2%" x="-21.1%" y="-12.2%" filterUnits="objectBoundingBox">
            <feOffset dy="4" in="SourceAlpha" result="shadowOffsetOuter1"/>
            <feGaussianBlur in="shadowOffsetOuter1" result="shadowBlurOuter1" stdDeviation="2.5"/>
            <feColorMatrix in="shadowBlurOuter1" values="0 0 0 0 0 0 0 0 0 0 0 0 0 0 0 0 0 0 0.5 0"/>
        </filter>
        <circle id="3t77smdvjb" cx="22.5" cy="22.5" r="22.5"/>
    </defs>
    <g fill="none" fill-rule="evenodd">
        <g>
            <g>
                <g>
                    <g transform="translate(-322 -615) translate(327 616)">
                        <use fill="#000" filter="url(#bd3vm3uzra)" xlink:href="#3t77smdvjb"/>
                        <use fill="url(#lvlieznsc)" xlink:href="#3t77smdvjb"/>
                    </g>
                </g>
                <g fill="#FFF" fill-rule="nonzero">
                    <path d="M17.695 3.684L12.38 9l5.314 5.316c.398.398.398 1.048 0 1.455l-1.93 1.93c-.398.399-1.047.399-1.454 0l-5.314-5.316-5.314 5.316c-.398.399-1.048.399-1.454 0l-1.93-1.93c-.399-.399-.399-1.048 0-1.455L5.613 9 .299 3.684C-.1 3.286-.1 2.636.299 2.229L2.229.3C2.627-.1 3.276-.1 3.683.299l5.314 5.316L14.31.299c.398-.399 1.047-.399 1.454 0l1.93 1.93c.407.399.407 1.048 0 1.455z" transform="translate(-322 -615) translate(327 616) translate(14 14)"/>
                </g>
            </g>
        </g>
    </g>
</svg>
