<svg xmlns="http://www.w3.org/2000/svg" width="20" height="13" viewBox="0 0 20 13">
    <g fill="none">
        <path fill="#FAB446" d="M18.502.625H1.498C.67.625 0 1.239 0 1.997v2.628h20V1.997c0-.758-.67-1.372-1.498-1.372z"/>
        <path fill="#73AF00" d="M0 11.253c0 .758.67 1.372 1.498 1.372h17.004c.827 0 1.498-.614 1.498-1.372V8.625H0v2.628z"/>
        <path fill="#F5F5F5" d="M0 4.625H20V8.625H0z"/>
        <g fill="#41479B" transform="translate(8 4.625)">
            <path d="M2 3.977C.91 3.977.023 3.09.023 2S.91.023 2 .023 3.977.91 3.977 2 3.09 3.977 2 3.977zM2 .391C1.113.39.39 1.113.39 2S1.114 3.61 2 3.61c.887 0 1.61-.723 1.61-1.61C3.61 1.113 2.886.39 2 .39z"/>
            <circle cx="2" cy="2" r="1"/>
            <path d="M2 2.034L1.43 2.091.207 2.034.207 1.966 1.43 1.909 2 1.966zM2 2.034L2.57 2.091 3.793 2.034 3.793 1.966 2.57 1.909 2 1.966z"/>
            <path d="M1.966 2L1.909 1.43 1.966.207 2.034.207 2.091 1.43 2.034 2zM1.966 2L1.909 2.57 1.966 3.793 2.034 3.793 2.091 2.57 2.034 2z"/>
            <path d="M1.976 2.024L1.533 1.662 0.708 0.756 0.756 0.708 1.662 1.533 2.024 1.976z"/>
            <path d="M1.976 2.024L2.338 2.467 3.244 3.292 3.292 3.244 2.467 2.338 2.024 1.976z"/>
            <path d="M1.976 1.976L2.338 1.533 3.244 0.708 3.292 0.756 2.467 1.662 2.024 2.024z"/>
            <path d="M1.976 1.976L1.533 2.338 0.708 3.244 0.756 3.292 1.662 2.467 2.024 2.024z"/>
            <path d="M2.013 2.031L1.509 2.302 0.356 2.717 0.331 2.655 1.439 2.134 1.987 1.969z"/>
            <path d="M2.013 2.031L2.561 1.866 3.669 1.345 3.644 1.283 2.491 1.698 1.987 1.969z"/>
            <path d="M1.969 2.013L1.698 1.509 1.283 0.356 1.345 0.331 1.866 1.439 2.031 1.987z"/>
            <path d="M1.969 2.013L2.134 2.561 2.655 3.669 2.717 3.644 2.302 2.491 2.031 1.987z"/>
            <path d="M1.987 2.031L1.439 1.866 0.331 1.345 0.356 1.283 1.509 1.698 2.013 1.969z"/>
            <path d="M1.987 2.031L2.491 2.302 3.644 2.717 3.669 2.655 2.561 2.134 2.013 1.969z"/>
            <path d="M1.969 1.987L2.134 1.439 2.655 0.331 2.717 0.356 2.302 1.509 2.031 2.013z"/>
            <path d="M1.969 1.987L1.698 2.491 1.283 3.644 1.345 3.669 1.866 2.561 2.031 2.013z"/>
        </g>
        <circle cx="10.5" cy="6.125" r="1" fill="#F5F5F5"/>
        <circle cx="10" cy="6.625" r="1" fill="#41479B"/>
    </g>
</svg>
