<svg xmlns="http://www.w3.org/2000/svg" width="31" height="31" viewBox="0 0 31 31">
    <defs>
        <radialGradient id="e1hss1mx3a" cx="20.499%" cy="87.392%" r="110.282%" fx="20.499%" fy="87.392%">
            <stop offset="0%" stop-color="#FAE100"/>
            <stop offset="5.44%" stop-color="#FADC04"/>
            <stop offset="11.67%" stop-color="#FBCE0E"/>
            <stop offset="18.29%" stop-color="#FCB720"/>
            <stop offset="25.14%" stop-color="#FE9838"/>
            <stop offset="30.54%" stop-color="#FF7950"/>
            <stop offset="49.22%" stop-color="#FF1C74"/>
            <stop offset="100%" stop-color="#6C1CD1"/>
        </radialGradient>
    </defs>
    <path fill="url(#e1hss1mx3a)" d="M15.501 0c-4.21 0-4.737.018-6.39.094-1.65.075-2.777.336-3.763.72-1.02.396-1.884.925-2.746 1.787-.862.862-1.391 1.726-1.789 2.746-.384.985-.645 2.112-.72 3.762C.02 10.762 0 11.29 0 15.5s.019 4.736.094 6.39c.076 1.65.337 2.776.72 3.762.396 1.019.926 1.884 1.787 2.745.862.862 1.726 1.393 2.745 1.79.986.383 2.113.644 3.763.72 1.653.075 2.181.093 6.39.093 4.21 0 4.737-.018 6.39-.094 1.65-.075 2.778-.336 3.764-.72 1.02-.396 1.883-.927 2.744-1.789.862-.861 1.392-1.726 1.79-2.745.38-.986.642-2.113.72-3.762.074-1.653.093-2.18.093-6.39 0-4.21-.02-4.738-.094-6.391-.077-1.65-.339-2.777-.72-3.762-.397-1.02-.927-1.884-1.789-2.746-.862-.862-1.724-1.392-2.745-1.787-.988-.384-2.115-.645-3.765-.72C20.234.018 19.707 0 15.497 0h.004zm-1.39 2.793h1.39c4.139 0 4.63.015 6.264.09 1.511.068 2.331.321 2.878.533.723.281 1.239.617 1.78 1.16.543.542.88 1.059 1.16 1.782.213.546.466 1.366.535 2.877.074 1.634.09 2.125.09 6.261 0 4.137-.016 4.628-.09 6.262-.07 1.511-.322 2.331-.534 2.877-.281.723-.618 1.238-1.16 1.78-.543.543-1.058.879-1.781 1.16-.546.213-1.367.465-2.878.534-1.634.074-2.125.09-6.264.09-4.138 0-4.629-.016-6.263-.09-1.511-.07-2.331-.322-2.878-.535-.723-.28-1.24-.616-1.783-1.159-.542-.542-.878-1.058-1.16-1.781-.212-.546-.465-1.366-.533-2.877-.075-1.634-.09-2.125-.09-6.264 0-4.14.015-4.628.09-6.262.069-1.511.321-2.331.533-2.878.281-.723.618-1.24 1.16-1.782.543-.543 1.06-.878 1.783-1.16.546-.213 1.367-.465 2.878-.534 1.43-.065 1.984-.084 4.873-.088v.004zm9.664 2.574c-1.027 0-1.86.832-1.86 1.86 0 1.026.833 1.86 1.86 1.86 1.027 0 1.86-.834 1.86-1.86 0-1.028-.833-1.86-1.86-1.86zM15.501 7.54c-4.395 0-7.96 3.564-7.96 7.96s3.565 7.958 7.96 7.958c4.396 0 7.96-3.562 7.96-7.958 0-4.396-3.564-7.96-7.96-7.96zm0 2.793c2.854 0 5.167 2.313 5.167 5.167 0 2.853-2.313 5.167-5.167 5.167-2.853 0-5.166-2.314-5.166-5.167 0-2.854 2.313-5.167 5.166-5.167z"/>
</svg>
