<svg xmlns="http://www.w3.org/2000/svg" width="33" height="33" viewBox="0 0 33 33">
    <g fill="none" fill-rule="evenodd">
        <path fill="#0077B5" d="M0 16.5C0 7.387 7.387 0 16.5 0S33 7.387 33 16.5 25.613 33 16.5 33 0 25.613 0 16.5z"/>
        <path fill="#FFF" d="M11.86 13.53V25H8.214V13.53h3.644zm8.945-.27c2.397 0 4.195 1.64 4.195 5.163V25h-3.644v-6.137c0-1.541-.527-2.593-1.846-2.593-1.007 0-1.606.709-1.87 1.394-.096.245-.12.587-.12.93V25h-3.644s.048-10.394 0-11.47h3.644v1.624c.484-.78 1.35-1.894 3.285-1.894zM10.06 8c1.247 0 2.015.857 2.038 1.981 0 1.102-.791 1.983-2.062 1.983h-.023C8.791 11.964 8 11.083 8 9.98 8 8.857 8.815 8 10.061 8z"/>
    </g>
</svg>
