<svg xmlns="http://www.w3.org/2000/svg" width="23" height="23" viewBox="0 0 23 23">
    <g fill="none" fill-rule="evenodd">
        <g fill="#881098" fill-rule="nonzero">
            <g>
                <path d="M14.992 8.557c2.743 2.645 2.705 6.885.017 9.49l-.017.016-3.084 2.971c-2.721 2.621-7.147 2.621-9.868 0-2.72-2.62-2.72-6.885 0-9.505l1.704-1.641c.451-.435 1.23-.146 1.253.469.03.783.175 1.57.444 2.331.092.258.026.542-.173.735L4.667 14c-1.286 1.24-1.327 3.258-.053 4.51 1.286 1.263 3.4 1.27 4.697.022l3.085-2.971c1.294-1.247 1.288-3.262 0-4.503-.17-.164-.341-.29-.475-.38-.192-.126-.31-.333-.319-.557-.018-.467.154-.949.537-1.318l.966-.931c.254-.244.651-.274.945-.077.337.227.652.481.942.76zm5.968-6.591c-2.72-2.621-7.147-2.621-9.868 0L8.008 4.937l-.017.017c-2.688 2.604-2.726 6.844.017 9.49.29.279.605.533.942.76.294.197.691.167.945-.077l.966-.931c.383-.37.555-.85.537-1.318-.009-.224-.127-.43-.319-.558-.134-.088-.305-.215-.475-.379-1.288-1.24-1.294-3.256 0-4.503l3.085-2.97c1.296-1.25 3.41-1.242 4.697.022 1.274 1.251 1.233 3.27-.053 4.509l-.6.578c-.2.193-.266.477-.174.735.269.76.415 1.548.444 2.331.024.615.802.904 1.253.47l1.703-1.642c2.721-2.62 2.721-6.885 0-9.505z" transform="translate(-358 -710) translate(358 710)"/>
            </g>
        </g>
    </g>
</svg>
