<svg xmlns="http://www.w3.org/2000/svg" width="30" height="30" viewBox="0 0 30 30">
    <g fill="none">
        <circle cx="15" cy="15" r="15" fill="#007AB9"/>
        <path fill="#F1F2F2" d="M24.444 15.773v6.45h-3.573v-6.018c0-1.51-.515-2.542-1.81-2.542-.986 0-1.573.694-1.832 1.367-.094.24-.118.574-.118.911v6.28h-3.573s.048-10.19 0-11.245h3.573v1.594l-.024.037h.024v-.037c.475-.765 1.322-1.858 3.22-1.858 2.351 0 4.113 1.608 4.113 5.061zM9.8 5.556c-1.223 0-2.022.84-2.022 1.942 0 1.08.776 1.944 1.975 1.944h.023c1.246 0 2.021-.864 2.021-1.944-.024-1.103-.775-1.942-1.997-1.942zM7.99 22.222h3.572V10.976H7.99v11.246z"/>
    </g>
</svg>
