<svg xmlns="http://www.w3.org/2000/svg" width="19" height="26" viewBox="0 0 19 26">
    <g fill="none" fill-rule="evenodd">
        <g fill="#881098" fill-rule="nonzero">
            <g>
                <path d="M9.5 0C4.262 0 0 4.224 0 9.416 0 15.86 8.502 25.32 8.864 25.72c.34.375.933.374 1.272 0 .362-.4 8.864-9.86 8.864-16.303C19 4.224 14.738 0 9.5 0zm0 14.154c-2.636 0-4.78-2.126-4.78-4.738 0-2.612 2.145-4.737 4.78-4.737 2.635 0 4.78 2.125 4.78 4.737 0 2.613-2.145 4.738-4.78 4.738z" transform="translate(-40 -285) translate(40 285)"/>
            </g>
        </g>
    </g>
</svg>
