<svg xmlns="http://www.w3.org/2000/svg" width="22" height="22" viewBox="0 0 22 22">
    <path fill="#FFF" d="M11 0C4.935 0 0 4.935 0 11s4.935 11 11 11c1.546 0 3.042-.315 4.445-.935.38-.168.552-.613.384-.993-.168-.38-.613-.551-.992-.383-1.21.535-2.502.807-3.837.807-5.236 0-9.496-4.26-9.496-9.496 0-5.236 4.26-9.496 9.496-9.496 5.236 0 9.496 4.26 9.496 9.496 0 .992-.153 1.97-.453 2.905-.647 2.015-1.709 2.636-2.226 2.556-.496-.078-.534-.82-.534-1.045V6.482c0-.415-.337-.752-.753-.752-.415 0-.752.337-.752.752v.443C14.625 5.575 12.911 4.717 11 4.717c-3.464 0-6.283 2.819-6.283 6.283 0 3.464 2.819 6.283 6.283 6.283 1.91 0 3.625-.858 4.778-2.208v.341c0 1.366.709 2.36 1.806 2.531 1.299.203 3.007-.825 3.892-3.582.348-1.084.524-2.217.524-3.365 0-6.065-4.935-11-11-11zm0 16c-2.757 0-5-2.243-5-5s2.243-5 5-5 5 2.243 5 5-2.243 5-5 5z"/>
</svg>
