<svg xmlns="http://www.w3.org/2000/svg" width="33" height="33" viewBox="0 0 33 33">
    <g fill="none" fill-rule="evenodd">
        <path fill="#FFF" d="M0 16.5C0 7.387 7.387 0 16.5 0S33 7.387 33 16.5 25.613 33 16.5 33 0 25.613 0 16.5z"/>
        <g>
            <path fill="#32FC8D" d="M17.222.024c-.122-.062-.222 0-.222.14v17.035l7.335 3.73c.366.185.665-.003.665-.418V4.112c0-.082-.045-.156-.117-.193L17.222.024" transform="translate(3 7)"/>
            <path fill="#0BE370" d="M8 12.98L16.402.128c.076-.117.245-.162.375-.1l8.116 3.82c.102.047.138.166.078.256L16.541 17 8 12.98" transform="translate(3 7)"/>
            <path fill="#14C767" d="M.552.11c-.53-.248-.71-.064-.4.41l8.142 12.4L17 17 8.35 3.825c-.037-.056-.09-.101-.152-.13L.552.11" transform="translate(3 7)"/>
            <path fill="#00AB6C" d="M8 20.509c0 .417-.3.606-.665.419l-6.892-3.52C.2 17.285 0 16.956 0 16.678V.327C0 .05.2-.075.443.049l7.458 3.808c.06.031.099.094.099.163v16.49" transform="translate(3 7)"/>
        </g>
    </g>
</svg>
