<svg xmlns="http://www.w3.org/2000/svg" width="26" height="26" viewBox="0 0 26 26">
    <g fill="none" fill-rule="evenodd">
        <g fill="#FFF" fill-rule="nonzero">
            <g>
                <path d="M3.71 25.187c0 .622.669 1.01 1.21.708l4.432-2.494c4.1 1.109 8.506.293 11.855-2.206C24.253 18.923 26 15.55 26 11.94 26 5.356 20.168 0 13 0S0 5.356 0 11.94c0 3.16 1.314 6.107 3.71 8.34v4.907zM1.624 11.94C1.625 6.252 6.728 1.625 13 1.625c6.273 0 11.375 4.627 11.375 10.315 0 3.092-1.51 5.991-4.14 7.953-3.032 2.26-7.054 2.955-10.755 1.854-.211-.062-.439-.036-.63.07l-3.517 1.98V19.92c0-.233-.1-.456-.275-.61-2.214-1.948-3.433-4.565-3.433-7.37z" transform="translate(-213 -630) translate(213 630)"/>
                <path d="M5.188 16.803l6.006-3.265 2.855 3.188c.374.419.894.306 1.169.005l6.541-7.21c.649-.717-.13-1.874-.954-1.417L14.8 11.437l-2.85-3.164c-.304-.337-.824-.373-1.162-.006L4.245 15.38c-.654.71.12 1.873.943 1.423zm6.171-6.644l2.693 2.989c.25.278.639.346.955.17l2.035-1.13-2.402 2.648-2.689-3.005c-.249-.279-.635-.348-.952-.176l-2.034 1.106 2.394-2.602z" transform="translate(-213 -630) translate(213 630)"/>
            </g>
        </g>
    </g>
</svg>
