<svg xmlns="http://www.w3.org/2000/svg" width="23" height="27" viewBox="0 0 23 27">
    <g fill="none" fill-rule="evenodd">
        <g fill="#E0D0FA" fill-rule="nonzero">
            <g>
                <path d="M21.65 16.498c-.289-.253-.562-.492-.702-.745l-.033-.055c-.506-.81-.692-2.784-.803-3.963l-.047-.498-.006-.05c-.25-1.744-.868-4.257-2.4-6.328-1.072-1.45-2.407-2.421-3.973-2.89C13.572.866 12.636 0 11.5 0c-1.135 0-2.072.865-2.186 1.97-1.566.468-2.901 1.439-3.974 2.89-1.53 2.07-2.15 4.583-2.4 6.332l-.004.043-.049.5c-.11 1.18-.296 3.154-.806 3.968l-.027.047c-.142.255-.415.495-.704.748-.714.625-2.041 1.788-.912 3.885.205.38.602.617 1.034.617h20.056c.432 0 .828-.236 1.034-.617 1.13-2.097-.198-3.26-.912-3.885zM14.37 24H9.543c-.157 0-.305.06-.405.163-.196.203-.139.484-.101.67l.003.016C9.292 26.095 10.535 27 11.997 27c1.49 0 2.767-.962 2.972-2.239l.006-.026c.024-.113.076-.349-.114-.547-.067-.07-.22-.188-.492-.188z" transform="translate(-256 -23) translate(256 23)"/>
            </g>
        </g>
    </g>
</svg>
