<svg xmlns="http://www.w3.org/2000/svg" width="43" height="42" viewBox="0 0 43 42">
    <defs>
        <linearGradient id="3r4zfgrjya" x1="101.012%" x2="1.195%" y1="138.085%" y2="-32.4%">
            <stop offset="0%" stop-color="#CC0886"/>
            <stop offset="51.552%" stop-color="#8D0B93"/>
            <stop offset="100%" stop-color="#4F4AD2"/>
        </linearGradient>
        <linearGradient id="0reqrc5dfb" x1="134.326%" x2="-30.678%" y1="63.595%" y2="37.283%">
            <stop offset="0%" stop-color="#CC0886"/>
            <stop offset="51.552%" stop-color="#8D0B93"/>
            <stop offset="100%" stop-color="#4F4AD2"/>
        </linearGradient>
    </defs>
    <g fill="none" fill-rule="evenodd">
        <g>
            <g transform="translate(-14 -452) translate(14 452)">
                <rect width="43" height="42" fill="#F7F7F7" rx="7"/>
                <g fill-rule="nonzero">
                    <path fill="url(#3r4zfgrjya)" d="M13.975 18H14c1.866 0 3.62-.735 4.941-2.072C20.27 14.586 21 12.8 21 10.898V0h-9.063C9.215 0 7 2.247 7 5.01v5.82c0 3.94 3.13 7.156 6.975 7.17z" transform="translate(8 14)"/>
                    <path fill="url(#0reqrc5dfb)" d="M25.772 19.344c-1.436-1.496-3.348-2.327-5.384-2.342L20.073 17l-.235.216c-1.608 1.478-3.68 2.292-5.836 2.292h-.032c-2.125-.007-4.177-.822-5.778-2.292L7.958 17h-.312C3.43 17.014 0 20.573 0 24.937V28h28v-3.064c0-2.11-.791-4.096-2.228-5.592z" transform="translate(8 14)"/>
                </g>
            </g>
        </g>
    </g>
</svg>
