<svg xmlns="http://www.w3.org/2000/svg" width="22" height="22" viewBox="0 0 22 22">
    <g fill="none" fill-rule="evenodd">
        <g fill="#FFF" fill-rule="nonzero">
            <g>
                <path d="M15.811 22c-.71 0-1.414-.126-2.102-.376-3.034-1.102-5.85-2.896-8.143-5.19-2.294-2.293-4.088-5.11-5.19-8.142C.022 7.317-.083 6.31.066 5.3c.138-.945.504-1.864 1.059-2.655.557-.795 1.3-1.456 2.147-1.912C4.176.247 5.163 0 6.205 0c.325 0 .605.226.673.543L7.957 5.58c.049.228-.021.465-.186.63L5.927 8.053c1.74 3.458 4.562 6.28 8.02 8.02l1.844-1.844c.165-.165.402-.235.63-.186l5.036 1.08c.317.067.543.347.543.671 0 1.043-.247 2.03-.733 2.934-.456.848-1.117 1.59-1.912 2.147-.791.555-1.71.921-2.656 1.06-.296.043-.592.065-.888.065zM5.656 1.405c-1.375.152-2.595.872-3.405 2.029-.911 1.3-1.124 2.9-.583 4.388 2.118 5.832 6.678 10.392 12.51 12.51 1.488.54 3.088.328 4.388-.583 1.157-.81 1.877-2.03 2.03-3.405l-4.097-.878-1.926 1.926c-.205.205-.516.259-.779.136-4.09-1.922-7.4-5.232-9.322-9.322-.123-.263-.069-.574.136-.779l1.926-1.925-.878-4.097z" transform="translate(-42 -633) translate(42 633)"/>
            </g>
        </g>
    </g>
</svg>
