<svg xmlns="http://www.w3.org/2000/svg" width="23" height="23" viewBox="0 0 23 23">
    <defs>
        <linearGradient id="fmk65jbp8a" x1="134.326%" x2="-41.578%" y1="138.085%" y2="-39.273%">
            <stop offset="0%" stop-color="#CC0886"/>
            <stop offset="51.552%" stop-color="#8D0B93"/>
            <stop offset="100%" stop-color="#4F4AD2"/>
        </linearGradient>
    </defs>
    <g fill="none">
        <path fill="url(#fmk65jbp8a)" d="M0 2.64C0 1.186 1.115 0 2.486 0h18.028C21.884 0 23 1.185 23 2.64v17.72c0 1.455-1.115 2.64-2.486 2.64H2.486C1.116 23 0 21.815 0 20.36zm19.361 12.183c0-.947-1.347-.947-1.347 0v2.27c0 .31-.238.563-.53.563h-2.137c-.892 0-.891 1.431 0 1.431h2.137c1.035 0 1.877-.894 1.877-1.994zm-14.375 0c0-.947-1.347-.947-1.347 0v2.27c0 1.1.842 1.994 1.877 1.994h2.137c.892 0 .891-1.431 0-1.431H5.516c-.292 0-.53-.253-.53-.563zM7.653 3.817H5.516c-1.035 0-1.877.895-1.877 1.994v2.27c0 .948 1.347.947 1.347 0v-2.27c0-.31.238-.562.53-.562h2.137c.892 0 .891-1.432 0-1.432zm9.831 0h-2.137c-.892 0-.891 1.432 0 1.432h2.137c.292 0 .53.252.53.562v2.27c0 .948 1.347.947 1.347 0v-2.27c0-1.1-.842-1.994-1.877-1.994z"/>
        <path fill="#FFF" d="M15.951 15.48l-2.324-2.324c.441-.544.706-1.236.706-1.99 0-1.745-1.42-3.166-3.166-3.166S8 9.42 8 11.167c0 1.746 1.42 3.166 3.167 3.166.753 0 1.445-.265 1.989-.706l2.324 2.324c.065.065.17.065.236 0l.235-.235c.065-.066.065-.171 0-.236zm-4.784-1.813c-1.379 0-2.5-1.122-2.5-2.5 0-1.379 1.121-2.5 2.5-2.5 1.378 0 2.5 1.121 2.5 2.5 0 1.378-1.122 2.5-2.5 2.5z"/>
    </g>
</svg>
