<svg xmlns="http://www.w3.org/2000/svg" width="33" height="23" viewBox="0 0 33 23">
    <g fill="none" fill-rule="evenodd">
        <g fill="#881098" fill-rule="nonzero">
            <g>
                <path d="M6.788 9.12c.402-2.27 3.561-4.696 6.031-4.747.172 0 .345-.052.46-.155.114-.052.23-.103.287-.258.861-1.445.402-2.58-1.034-3.509-1.666-1.083-4.308 0-5.63.98C3.573 3.909.183 8.192.356 12.268c-.574 2.735-.46 5.676.402 8.1.574 1.548 2.24 2.322 3.963 2.426 1.723.103 5.285.567 6.835-.361 1.551-.93 1.666-2.735 1.838-4.283.173-1.703.69-4.902-.919-6.243-1.608-1.29-6.203.103-5.686-2.786zM25.788 9.12c.402-2.27 3.561-4.696 6.031-4.747.172 0 .345-.052.46-.155.114-.052.23-.103.287-.258.861-1.445.402-2.58-1.034-3.509-1.666-1.083-4.308 0-5.63.98-3.33 2.477-6.72 6.76-6.547 10.836-.574 2.735-.46 5.676.402 8.1.574 1.548 2.24 2.322 3.963 2.426 1.723.103 5.285.567 6.835-.361 1.551-.93 1.666-2.735 1.838-4.283.173-1.703.69-4.902-.919-6.243-1.608-1.29-6.26.103-5.686-2.786z" transform="translate(-16 -951) translate(16 951)"/>
            </g>
        </g>
    </g>
</svg>
