<svg xmlns="http://www.w3.org/2000/svg" width="23" height="22" viewBox="0 0 23 22">
    <defs>
        <linearGradient id="9altwzkpqa" x1="134.326%" x2="-30.678%" y1="130.592%" y2="-25.391%">
            <stop offset="0%" stop-color="#CC0886"/>
            <stop offset="51.552%" stop-color="#8D0B93"/>
            <stop offset="100%" stop-color="#4F4AD2"/>
        </linearGradient>
    </defs>
    <g fill="none" fill-rule="evenodd">
        <g fill="url(#9altwzkpqa)" fill-rule="nonzero" transform="translate(-255 -698)">
            <g>
                <path d="M11.5 0C5.159 0 0 4.935 0 11s5.159 11 11.5 11S23 17.065 23 11 17.841 0 11.5 0zm4.651 14.153c.187.179.187.469 0 .648l-.677.648c-.187.179-.49.179-.678 0L11.5 12.296 8.204 15.45c-.187.179-.49.179-.678 0l-.677-.648c-.187-.179-.187-.47 0-.648L10.145 11 6.849 7.847c-.187-.179-.187-.469 0-.648l.677-.648c.187-.179.49-.179.678 0L11.5 9.704l3.296-3.153c.187-.179.49-.179.678 0l.677.648c.187.179.187.47 0 .648L12.855 11l3.296 3.153z" transform="translate(255 698)"/>
            </g>
        </g>
    </g>
</svg>
