<svg xmlns="http://www.w3.org/2000/svg" width="23" height="23" viewBox="0 0 23 23">
    <defs>
        <linearGradient id="wjs81inlba" x1="134.326%" x2="-30.678%" y1="138.085%" y2="-32.4%">
            <stop offset="0%" stop-color="#CC0886"/>
            <stop offset="51.552%" stop-color="#8D0B93"/>
            <stop offset="100%" stop-color="#4F4AD2"/>
        </linearGradient>
        <linearGradient id="watexraikb" x1="134.326%" x2="-30.678%" y1="64.094%" y2="36.816%">
            <stop offset="0%" stop-color="#CC0886"/>
            <stop offset="51.552%" stop-color="#8D0B93"/>
            <stop offset="100%" stop-color="#4F4AD2"/>
        </linearGradient>
    </defs>
    <g fill="none" fill-rule="evenodd">
        <g fill-rule="nonzero">
            <g>
                <path fill="url(#wjs81inlba)" d="M7 19.5C7 17.57 5.43 16 3.5 16c-.971 0-1.952.46-2.615 1.176C.314 17.82 0 18.641 0 19.5 0 21.43 1.57 23 3.5 23c.86 0 1.727-.353 2.369-.926C6.588 21.412 7 20.474 7 19.5zm-2.216.759h-.572v.572c0 .394-.319.712-.712.712-.393 0-.711-.318-.711-.712v-.572h-.573c-.393 0-.712-.319-.712-.712 0-.392.319-.711.712-.711h.573v-.573c0-.393.318-.711.711-.711.393 0 .712.318.712.711v.573h.572c.394 0 .712.319.712.711 0 .393-.318.712-.712.712zM11.5 11c.827 0 1.5-.673 1.5-1.5S12.327 8 11.5 8 10 8.673 10 9.5s.673 1.5 1.5 1.5z" transform="translate(-145 -697) translate(145 697)"/>
                <path fill="url(#watexraikb)" d="M11.5 12c-1.2 0-2.21.85-2.5 2h5c-.29-1.15-1.3-2-2.5-2z" transform="translate(-145 -697) translate(145 697)"/>
                <path fill="url(#wjs81inlba)" d="M19.632 3.369C17.46 1.196 14.572 0 11.5 0S5.54 1.196 3.368 3.369C1.196 5.54 0 8.429 0 11.5c0 1.451.277 2.897.807 4.238.854-.773 1.802-1.185 3.13-1.164 2.357.036 4.553 2.33 4.527 4.617-.013 1.13-.282 2.225-1.022 3.07 1.29.486 2.672.739 4.058.739 3.072 0 5.96-1.196 8.132-3.368C21.804 17.46 23 14.572 23 11.5c0-3.071-1.196-5.96-3.368-8.131zm-4.785 12.34H8.153c-.372 0-.674-.302-.674-.674 0-1.507.833-2.823 2.064-3.512-.469-.487-.757-1.15-.757-1.877 0-1.497 1.218-2.714 2.714-2.714s2.714 1.217 2.714 2.714c0 .728-.288 1.39-.757 1.877 1.23.689 2.064 2.005 2.064 3.512 0 .372-.302.674-.674.674z" transform="translate(-145 -697) translate(145 697)"/>
            </g>
        </g>
    </g>
</svg>
