<svg xmlns="http://www.w3.org/2000/svg" width="31" height="21" viewBox="0 0 31 21">
    <path fill="#E0D0FA" d="M28.275 0H2.725C1.22 0 0 1.209 0 2.7v15.6C0 19.791 1.22 21 2.725 21h25.55C29.78 21 31 19.791 31 18.3V2.7C31 1.209 29.78 0 28.275 0zm-2.18 15.443c-.382.322-.955.277-1.28-.102l-5.242-6.108-3.623 2.049c-.279.157-.621.157-.9 0l-3.623-2.049-5.242 6.108c-.325.378-.898.425-1.28.102-.382-.322-.429-.89-.104-1.268l5.02-5.85-4.458-2.52c-.436-.246-.588-.796-.34-1.228.25-.432.804-.582 1.24-.336L15.5 9.464l9.237-5.223c.436-.246.99-.096 1.24.336.248.432.096.981-.34 1.228l-4.458 2.52 5.02 5.85c.325.378.278.946-.104 1.268z"/>
</svg>
