<svg xmlns="http://www.w3.org/2000/svg" width="23" height="21" viewBox="0 0 23 21">
    <g fill="none" fill-rule="evenodd">
        <g fill="#FFF" fill-rule="nonzero">
            <g>
                <path d="M2.775 21c-.437 0-.86-.073-1.26-.217l-.91-.328.699-.69c.925-.912 1.159-1.964 1.174-2.752C.878 15.166 0 12.863 0 10.5 0 4.71 5.159 0 11.5 0 17.84 0 23 4.71 23 10.5S17.84 21 11.5 21c-1.888 0-3.75-.426-5.41-1.235C5.464 20.225 4.2 21 2.775 21zm3.177-2.665l.336.177c1.578.83 3.38 1.27 5.211 1.27 5.697 0 10.331-4.164 10.331-9.282S17.196 1.218 11.5 1.218c-5.697 0-10.331 4.164-10.331 9.282 0 2.127.823 4.207 2.317 5.855l.152.168.007.23c.026.828-.117 1.95-.824 3.029 1.355-.023 2.6-1.004 2.838-1.202l.293-.245z" transform="translate(-80 -633) translate(80 633)"/>
                <path d="M6.332 14c-.35 0-.634-.037-.853-.112-.219-.074-.37-.15-.454-.227-.02-.029-.029-.094-.024-.197.005-.101.017-.208.036-.317.018-.11.042-.207.07-.291.029-.085.056-.124.082-.117.136.064.284.126.443.186.159.06.361.09.606.09.25 0 .463-.05.639-.149.174-.099.262-.276.262-.53 0-.22-.058-.398-.173-.535-.114-.138-.32-.285-.618-.44-.162-.085-.314-.179-.458-.281-.144-.102-.27-.223-.38-.36-.11-.138-.195-.303-.258-.493-.063-.191-.094-.417-.094-.68 0-.211.03-.413.09-.603.06-.191.153-.356.278-.493.125-.138.286-.248.481-.329.196-.081.43-.122.701-.122.177 0 .325.005.442.016.118.01.214.025.29.042.076.018.137.038.184.059.047.021.091.039.133.053.037.02.055.083.055.185 0 .103-.01.212-.031.33-.021.115-.05.218-.086.306-.037.089-.074.126-.11.112-.089-.035-.21-.074-.364-.117-.154-.042-.304-.063-.45-.063-.298 0-.502.057-.615.17-.112.112-.168.264-.168.455 0 .205.063.37.188.493.125.124.321.25.587.376.423.227.735.486.936.78.2.293.301.662.301 1.107 0 .333-.047.609-.14.828-.095.22-.22.393-.377.519-.156.128-.335.218-.536.27-.2.053-.406.079-.615.079zM12.428 13.999c-.114 0-.189-.025-.224-.077-.036-.05-.053-.15-.053-.296V9.787l-.502 1.102-.257.571-.099.214c-.01.022-.015.037-.015.044-.05.11-.084.18-.102.214-.02.034-.06.049-.119.049h-.13c-.071 0-.118-.016-.14-.05-.021-.032-.054-.103-.097-.213L9.857 9.81v3.883c0 .095-.012.17-.037.225-.024.055-.088.082-.192.082h-.342c-.076 0-.143-.016-.2-.05-.057-.032-.086-.14-.086-.323V8.362c0-.146.02-.243.061-.29.041-.048.1-.072.176-.072h.408c.06 0 .11.01.15.033.042.022.084.077.127.164l1.086 2.325 1.085-2.303c.033-.08.072-.137.12-.17.046-.033.09-.049.134-.049h.449c.103 0 .163.03.18.088.016.058.024.153.024.285v5.308c0 .11-.01.19-.033.241-.021.052-.084.077-.187.077h-.352zM15.333 14c-.35 0-.635-.037-.854-.112-.219-.074-.37-.15-.454-.227-.02-.029-.029-.094-.024-.197.005-.101.017-.208.036-.317.018-.11.041-.207.07-.291.028-.085.055-.124.082-.117.136.064.284.126.442.186.16.06.362.09.607.09.25 0 .463-.05.638-.149.175-.099.263-.276.263-.53 0-.22-.058-.398-.173-.535-.115-.138-.32-.285-.618-.44-.162-.085-.315-.179-.458-.281-.144-.102-.27-.223-.38-.36-.11-.138-.196-.303-.259-.493-.063-.191-.094-.417-.094-.68 0-.211.03-.413.09-.603.06-.191.153-.356.278-.493.126-.138.286-.248.482-.329.196-.081.43-.122.7-.122.178 0 .326.005.443.016.117.01.214.025.29.042.075.018.137.038.184.059.047.02.091.039.133.053.036.02.055.083.055.185 0 .103-.01.212-.032.33-.02.115-.05.218-.085.306-.037.089-.074.126-.11.112-.089-.035-.21-.074-.364-.117-.154-.042-.304-.063-.45-.063-.298 0-.503.057-.615.17-.112.112-.168.264-.168.455 0 .205.063.37.188.493.125.124.32.25.587.376.422.227.735.486.935.78.201.293.302.662.302 1.107 0 .333-.047.609-.14.828-.095.22-.22.393-.377.519-.156.128-.335.218-.536.27-.202.053-.406.079-.614.079z" transform="translate(-80 -633) translate(80 633)"/>
            </g>
        </g>
    </g>
</svg>
