<svg xmlns="http://www.w3.org/2000/svg" width="33" height="33" viewBox="0 0 33 33">
    <g fill="none" fill-rule="evenodd">
        <path fill="#FFE400" d="M0 16.5C0 7.387 7.387 0 16.5 0S33 7.387 33 16.5 25.613 33 16.5 33 0 25.613 0 16.5z"/>
        <path fill="#FFF" d="M16.664 7.966h-.042c-.105 0-.278.003-.294.003-.379 0-1.137.057-1.951.439-.466.218-.885.514-1.245.878-.43.434-.78.969-1.04 1.59-.382.91-.291 2.442-.218 3.673v.002l.023.404c-.055.027-.146.056-.28.056-.215 0-.47-.073-.76-.217-.085-.042-.182-.064-.29-.064-.172 0-.353.054-.51.153-.199.123-.327.298-.362.492-.023.128-.022.382.243.639.146.142.36.272.636.388.072.03.158.06.25.09.315.107.794.268.919.58.063.159.036.367-.081.62l-.009.02c-.03.072-.301.727-.859 1.418-.317.393-.666.722-1.037.977-.453.311-.943.514-1.456.604-.202.036-.346.227-.335.444.004.062.017.125.041.185v.001c.082.203.271.375.579.527.375.186.937.342 1.669.464.037.075.075.263.102.391.028.137.057.278.098.427.045.162.16.356.458.356.112 0 .242-.027.392-.058.22-.046.52-.109.896-.109.208 0 .423.02.64.058.418.074.779.345 1.196.659.61.459 1.302.978 2.358.978.029 0 .058 0 .086-.003.035.002.078.003.124.003 1.056 0 1.747-.52 2.357-.978l.001-.001c.418-.313.778-.584 1.196-.658.217-.038.432-.058.64-.058.359 0 .643.049.896.101.165.035.294.052.392.052h.02c.217 0 .377-.127.438-.35.04-.146.07-.283.098-.422.025-.12.065-.314.102-.39.732-.122 1.294-.278 1.67-.463.306-.151.495-.323.577-.525.024-.061.039-.124.042-.188.011-.216-.133-.408-.335-.443-2.281-.4-3.31-2.894-3.352-3l-.009-.02c-.117-.252-.144-.46-.08-.619.124-.312.602-.473.918-.58.092-.03.178-.06.25-.09.312-.13.534-.273.681-.434.175-.192.21-.376.207-.496-.005-.292-.214-.55-.548-.678-.112-.05-.24-.075-.371-.075-.09 0-.22.013-.346.075-.267.133-.506.205-.711.216-.11-.006-.186-.032-.235-.056l.02-.352.003-.052c.073-1.232.164-2.765-.218-3.676-.261-.623-.612-1.16-1.044-1.594-.362-.365-.782-.66-1.25-.878-.812-.38-1.57-.436-1.95-.436"/>
    </g>
</svg>
