<svg xmlns="http://www.w3.org/2000/svg" width="43" height="42" viewBox="0 0 43 42">
    <defs>
        <linearGradient id="ypmij5t5ba" x1="134.326%" x2="-30.678%" y1="126.731%" y2="-21.78%">
            <stop offset="0%" stop-color="#CC0886"/>
            <stop offset="51.552%" stop-color="#8D0B93"/>
            <stop offset="100%" stop-color="#4F4AD2"/>
        </linearGradient>
    </defs>
    <g fill="none" fill-rule="evenodd">
        <g>
            <g transform="translate(-14 -654) translate(14 654)">
                <rect width="43" height="42" fill="#F7F7F7" rx="7"/>
                <g fill="url(#ypmij5t5ba)" fill-rule="nonzero" transform="translate(13 11)">
                    <path d="M8.599 5.267c-2.508 2.56-1.961 6.81.912 8.694.094.062.22.05.302-.03.604-.582 1.116-1.147 1.564-1.866.069-.11.026-.252-.089-.314-.438-.234-.874-.673-1.12-1.138-.294-.577-.394-1.225-.238-1.894.18-.856 1.11-1.653 1.822-2.39l-.004-.002 2.666-2.685c1.063-1.07 2.81-1.08 3.884-.02 1.084 1.049 1.102 2.782.04 3.853l-1.615 1.639c-.075.075-.1.186-.064.286.371 1.064.463 2.565.214 3.698-.007.032.032.053.055.03l3.437-3.462c2.196-2.212 2.177-5.813-.041-8.002-2.264-2.235-5.95-2.216-8.19.041L8.612 5.252l-.013.015z"/>
                    <path d="M14.313 15.477l.006-.002c.702-1.269.84-2.723.511-4.141l-.001.001h-.002c-.312-1.263-1.169-2.518-2.332-3.29-.1-.066-.26-.058-.354.016-.59.472-1.166 1.076-1.547 1.847-.06.12-.015.266.103.334.442.253.84.624 1.108 1.117.208.348.413 1.009.28 1.719-.124.94-1.085 1.804-1.85 2.582h.001l-2.652 2.676c-1.063 1.072-2.82 1.09-3.905.04-1.084-1.051-1.102-2.788-.04-3.86l1.62-1.647c.074-.075.099-.183.066-.282-.36-1.092-.458-2.561-.23-3.696.005-.031-.034-.052-.057-.028l-3.386 3.416c-2.219 2.239-2.2 5.884.042 8.1 2.264 2.193 5.932 2.156 8.151-.082.77-.853 4.07-3.873 4.468-4.82z"/>
                </g>
            </g>
        </g>
    </g>
</svg>
