<svg xmlns="http://www.w3.org/2000/svg" width="14" height="14" viewBox="0 0 14 14">
    <g fill="#FFF">
        <path d="M13.837 2.14c-.217-.186-.57-.187-.786 0L6.375 7.836l-2.41-2.239c-.207-.193-.56-.206-.785-.028-.227.179-.241.48-.033.673l2.801 2.603c.103.096.246.151.398.154h.012c.147 0 .288-.05.392-.139l7.086-6.048c.218-.185.219-.487.001-.673z"/>
        <path d="M13.472 6.472c-.291 0-.527.237-.527.528 0 3.278-2.667 5.945-5.945 5.945-3.278 0-5.945-2.667-5.945-5.945 0-3.278 2.667-5.945 5.945-5.945.291 0 .528-.236.528-.527C7.528.236 7.29 0 7 0 3.14 0 0 3.14 0 7s3.14 7 7 7 7-3.14 7-7c0-.291-.236-.528-.528-.528z"/>
    </g>
</svg>
