<svg xmlns="http://www.w3.org/2000/svg" width="33" height="33" viewBox="0 0 33 33">
    <g fill="none" fill-rule="evenodd">
        <path fill="#55ACEE" d="M0 16.5C0 7.387 7.387 0 16.5 0S33 7.387 33 16.5 25.613 33 16.5 33 0 25.613 0 16.5z"/>
        <path fill="#FFF" d="M16.726 13.19l.037.613-.613-.075c-2.232-.288-4.182-1.261-5.837-2.897l-.81-.811-.208.6c-.441 1.335-.16 2.746.76 3.694.49.525.38.6-.466.287-.294-.1-.551-.174-.576-.137-.086.088.208 1.224.441 1.673.32.624.97 1.236 1.68 1.598l.601.287-.71.013c-.688 0-.712.012-.639.274.246.812 1.214 1.673 2.294 2.048l.76.262-.662.4c-.981.574-2.134.898-3.287.923-.552.013-1.005.063-1.005.1 0 .125 1.496.824 2.366 1.099 2.612.811 5.715.461 8.045-.924 1.655-.986 3.31-2.946 4.083-4.844.417-1.011.834-2.859.834-3.745 0-.575.037-.65.724-1.336.404-.4.785-.836.858-.961.123-.238.11-.238-.515-.025-1.042.374-1.19.324-.674-.237.38-.4.833-1.124.833-1.336 0-.038-.183.025-.392.137-.22.125-.711.312-1.08.424l-.661.213-.601-.412c-.331-.225-.797-.475-1.042-.55-.626-.174-1.582-.15-2.146.05-1.533.562-2.502 2.01-2.392 3.596z"/>
    </g>
</svg>
