<svg xmlns="http://www.w3.org/2000/svg" width="33" height="33" viewBox="0 0 33 33">
    <defs>
        <linearGradient id="a9crdf2hoa" x1="173.728%" x2="-39.762%" y1="131.271%" y2="-21.635%">
            <stop offset="0%" stop-color="#FF057C"/>
            <stop offset="46.684%" stop-color="#8D0B93"/>
            <stop offset="100%" stop-color="#2575FC"/>
        </linearGradient>
    </defs>
    <g fill="none" fill-rule="evenodd">
        <g>
            <g>
                <g fill="#F9EDE0" fill-rule="nonzero">
                    <path d="M.787.615C.546.717.302.816.057.907.304.815.547.716.788.615zM2 .059c-.262.13-.522.258-.788.376.266-.119.527-.246.787-.376z" transform="translate(-135 -20) translate(135 20) translate(21 32)"/>
                </g>
                <path fill="url(#a9crdf2hoa)" d="M16.5 0C25.613 0 33 7.358 33 16.435c0 3.94-1.392 7.557-3.713 10.388l.046.177c-1.113-4.415-4.574-7.924-9.018-9.227 1.856-1.202 3.08-3.254 3.08-5.587 0-3.704-3.087-6.708-6.895-6.708-3.808 0-6.896 3.004-6.896 6.708 0 2.243 1.132 4.226 2.87 5.445l.212.142c-4.385 1.286-7.812 4.718-8.973 9.049C1.393 23.992 0 20.375 0 16.435 0 7.358 7.387 0 16.5 0z" transform="translate(-135 -20) translate(135 20)"/>
                <g fill="#F9EDE0" fill-rule="nonzero">
                    <path d="M11.995 1.247c-.174.052-.35.102-.527.149.178-.047.353-.097.527-.15zM6.2 1.883c-.209-.02-.417-.041-.622-.072.206.03.414.052.622.072zM3.406 1.395c-.177-.047-.352-.096-.527-.149.175.053.35.103.527.15zM5.224 1.774c-.187-.03-.373-.063-.558-.1.185.037.371.068.558.1zM7.438 1.934c-.315 0-.627-.014-.937-.036.31.022.622.036.936.036zM4.302 1.603c-.18-.036-.358-.075-.535-.117.177.042.356.08.535.117zM.855.49C.589.37.326.243.068.108.327.243.59.37.855.49zM1.684.838c-.195-.076-.387-.157-.58-.24.193.083.385.164.58.24z" transform="translate(-135 -20) translate(135 20) translate(9 31)"/>
                    <path d="M8.374 1.898c-.31.022-.622.036-.937.036.315 0 .627-.014.937-.036zM9.297 1.811c-.206.03-.414.052-.622.072.208-.02.416-.041.622-.072zM11.108 1.486c-.177.042-.355.08-.534.117.178-.036.357-.075.534-.117zM10.21 1.673c-.186.038-.372.07-.559.1.187-.03.373-.062.558-.1zM14.804.11c-.258.133-.52.26-.784.38.265-.12.526-.246.784-.38zM2.535 1.14c-.18-.058-.36-.122-.537-.186.178.064.356.128.537.186zM14.02.49c-.082.038-.167.071-.25.107.083-.036.167-.069.25-.107zM14.849.106l-.034.015c.01-.005.023-.009.034-.015zM3.767 1.496c-.121-.032-.241-.065-.36-.1.119.035.239.068.36.1zM4.666 1.692c-.122-.027-.244-.058-.365-.088.122.03.243.061.365.088zM6.5 1.904c-.1-.007-.2-.021-.3-.03.1.009.2.023.3.03zM5.578 1.825c-.119-.018-.236-.04-.354-.061.118.02.235.043.354.06zM.09.12L.06.106.09.12zM8.675 1.873c-.1.01-.2.024-.3.031.1-.007.2-.021.3-.03zM12.34 1.14c-.114.038-.23.072-.345.107.116-.035.23-.07.345-.107zM13.19.838c-.103.04-.208.077-.312.116.104-.039.21-.075.313-.116zM1.105.598C1.022.562.938.528.855.49c.083.037.167.07.25.107zM1.998.954c-.105-.039-.21-.075-.313-.116.103.04.208.077.313.116zM9.65 1.764c-.117.02-.234.044-.353.06.119-.017.236-.04.354-.06zM11.469 1.395c-.12.035-.24.068-.36.1.12-.031.24-.064.36-.1zM10.573 1.604c-.121.03-.242.061-.364.088.122-.027.243-.058.364-.088zM2.88 1.247c-.115-.035-.23-.07-.345-.107.114.038.23.072.345.107z" transform="translate(-135 -20) translate(135 20) translate(9 31)"/>
                </g>
            </g>
        </g>
    </g>
</svg>
