<svg xmlns="http://www.w3.org/2000/svg" width="38" height="22" viewBox="0 0 38 22">
    <g fill="none" fill-rule="evenodd">
        <g fill="#881098" fill-rule="nonzero">
            <g>
                <path d="M21.786.026H4.214C1.896.026 0 1.869 0 4.122V17.93c0 2.253 1.896 4.097 4.214 4.097h17.572c2.318 0 4.214-1.844 4.214-4.097V4.122C26 1.828 24.104.026 21.786.026zM35.004 3.09c-.243.04-.486.158-.688.277L28 6.934v9.196l6.356 3.567c1.174.674 2.632.277 3.32-.872.203-.357.324-.753.324-1.19V5.389c0-1.466-1.417-2.655-2.996-2.299z" transform="translate(-16 -1148) translate(16 1147.974)"/>
            </g>
        </g>
    </g>
</svg>
