<svg xmlns="http://www.w3.org/2000/svg" width="32" height="19" viewBox="0 0 32 19">
    <g fill="none" fill-rule="evenodd">
        <g fill="#881098" fill-rule="nonzero">
            <g>
                <path d="M30.521 8.92C30.253 8.556 23.868 0 15.712 0 7.556 0 1.17 8.556.902 8.92c-.253.345-.253.814 0 1.16.268.364 6.654 8.92 14.81 8.92s14.541-8.556 14.81-8.92c.254-.345.254-.815 0-1.16zm-14.809 8.114c-6.008 0-11.21-5.678-12.751-7.535 1.538-1.858 6.73-7.533 12.751-7.533 6.007 0 11.21 5.677 12.751 7.535-1.538 1.858-6.73 7.533-12.751 7.533z" transform="translate(-53 -169) translate(53.288 169)"/>
                <path d="M15.712 3c-3.308 0-6 2.692-6 6s2.692 6 6 6 6-2.692 6-6-2.692-6-6-6zm0 10c-2.206 0-4-1.794-4-4s1.795-4 4-4c2.206 0 4 1.794 4 4s-1.794 4-4 4z" transform="translate(-53 -169) translate(53.288 169)"/>
            </g>
        </g>
    </g>
</svg>
