<svg xmlns="http://www.w3.org/2000/svg" width="29" height="26" viewBox="0 0 29 26">
    <g fill="none" fill-rule="evenodd">
        <g fill="#FFF" fill-rule="nonzero">
            <g>
                <path d="M11 0C4.934 0 0 4.059 0 9.048c0 2.636 1.364 5.083 3.771 6.82l-.924 1.824c-.172.338-.112.749.152 1.024.176.184.42.284.668.284.12 0 .244-.024.36-.072l3.242-1.37c1.52.454 3.14.592 4.767.5.506-.026.895-.453.867-.953-.027-.5-.508-.91-.964-.854-1.518.076-3.025-.056-4.426-.517-.213-.069-.444-.058-.65.027l-1.257.532.165-.328c.211-.416.066-.924-.335-1.17-2.29-1.412-3.603-3.505-3.603-5.747C1.833 5.056 5.945 1.81 11 1.81s9.167 3.246 9.167 7.238c0 .271-.013.526-.059.781-.09.493.244.963.74 1.05.507.092.974-.239 1.064-.731.064-.36.088-.72.088-1.1C22 4.058 17.067 0 11 0z" transform="translate(-257 -630) translate(257 630)"/>
                <path d="M25.949 22.205C27.873 20.777 29 18.718 29 16.555 29 12.39 24.963 9 20 9s-9 3.389-9 7.556c0 4.614 4.896 8.339 10.627 7.425l4.318 1.943c.114.05.236.076.355.076.243 0 .482-.104.655-.298.261-.288.32-.714.151-1.07l-1.157-2.427zm-1.615-1.158c-.414.25-.57.794-.358 1.241l.42.884-2.3-1.037c-.112-.049-.235-.075-.355-.075-.053 0-.103.004-.153.013-.553.102-1.073.15-1.588.15-3.97 0-7.2-2.543-7.2-5.667 0-3.125 3.23-5.667 7.2-5.667s7.2 2.542 7.2 5.667c0 1.76-1.044 3.398-2.866 4.491zM7.005 6h-.02C6.435 6 6 6.448 6 7s.456 1 1.005 1C7.555 8 8 7.552 8 7s-.446-1-.995-1zM15.005 6h-.02c-.55 0-.985.448-.985 1s.456 1 1.005 1c.55 0 .995-.448.995-1s-.446-1-.995-1z" transform="translate(-257 -630) translate(257 630)"/>
                <path d="M18.005 14h-.02c-.551 0-.985.448-.985 1s.456 1 1.005 1c.55 0 .995-.448.995-1s-.446-1-.995-1zM23.005 14h-.02c-.55 0-.985.448-.985 1s.458 1 1.005 1c.55 0 .995-.448.995-1s-.446-1-.995-1z" transform="translate(-257 -630) translate(257 630)"/>
            </g>
        </g>
    </g>
</svg>
