<svg xmlns="http://www.w3.org/2000/svg" width="24" height="24" viewBox="0 0 24 24">
    <g fill="none" fill-rule="evenodd">
        <g fill="#FDFDFD">
            <path d="M180.05 653.794h-.005c-2 0-3.965-.5-5.71-1.448L168 654l1.695-6.163c-1.045-1.803-1.596-3.85-1.595-5.945.003-6.557 5.364-11.892 11.95-11.892 3.197.001 6.197 1.24 8.453 3.488 2.256 2.248 3.498 5.236 3.497 8.413-.003 6.556-5.361 11.89-11.95 11.893zm-5.509-3.404l.365.217c1.536.91 3.296 1.392 5.09 1.393H180c5.512 0 9.998-4.484 10-9.996.001-2.671-1.038-5.183-2.926-7.072-1.888-1.89-4.399-2.931-7.07-2.932-5.516 0-10.002 4.484-10.004 9.996 0 1.888.528 3.728 1.529 5.32l.238.378-1.01 3.688 3.784-.992zm11.416-5.218c-.074-.122-.27-.195-.566-.34-.295-.147-1.747-.852-2.017-.95-.27-.097-.468-.145-.665.147-.196.291-.762.948-.934 1.143-.173.194-.345.219-.64.073-.295-.146-1.247-.454-2.374-1.447-.878-.773-1.47-1.728-1.643-2.02-.172-.292-.018-.45.13-.595.132-.13.295-.34.442-.51.148-.17.197-.292.296-.487.098-.195.049-.365-.025-.51-.074-.147-.664-1.582-.91-2.165-.24-.569-.483-.492-.664-.5-.172-.01-.37-.011-.566-.011-.197 0-.517.073-.788.365-.27.292-1.033.997-1.033 2.432s1.058 2.821 1.206 3.016c.147.194 2.081 3.139 5.043 4.401.705.3 1.255.48 1.683.615.708.221 1.351.19 1.86.115.567-.084 1.747-.705 1.993-1.386.246-.681.246-1.265.172-1.386z" transform="translate(-168 -630)"/>
        </g>
    </g>
</svg>
