<svg xmlns="http://www.w3.org/2000/svg" width="36" height="36" viewBox="0 0 36 36">
    <g fill="none" fill-rule="evenodd">
        <path fill="red" d="M0 18C0 8.059 8.059 0 18 0s18 8.059 18 18-8.059 18-18 18S0 27.941 0 18z"/>
        <path fill="#FFF" d="M27.603 13.186c-.219-.86-.862-1.538-1.68-1.768C24.441 11 18.5 11 18.5 11s-5.941 0-7.423.418c-.818.23-1.462.908-1.68 1.768C9 14.746 9 18 9 18s0 3.254.397 4.814c.218.86.862 1.538 1.68 1.768C12.559 25 18.5 25 18.5 25s5.941 0 7.423-.418c.818-.23 1.461-.908 1.68-1.768C28 21.254 28 18 28 18s0-3.254-.397-4.814"/>
        <path fill="red" d="M16 22L16 16 21 19z"/>
    </g>
</svg>
